HIERARCHY
ROOT Hips
{
	OFFSET	0.000000	0.000000	0.000000
	CHANNELS 6 Xposition Yposition Zposition Zrotation Xrotation Yrotation
	JOINT LeftUpLeg
	{
		OFFSET	12.830505	-7.049846	-1.643436
		CHANNELS 3 Zrotation Xrotation Yrotation
		JOINT LeftLeg
		{
			OFFSET	0.620834	-39.957500	-1.919341
			CHANNELS 3 Zrotation Xrotation Yrotation
			JOINT LeftFoot
			{
				OFFSET	-0.413890	-44.704761	-3.870325
				CHANNELS 3 Zrotation Xrotation Yrotation
				JOINT LeftFootHeel
				{
					OFFSET	0.164738	-8.918193	-6.555130
					CHANNELS 3 Zrotation Xrotation Yrotation
					End Site
					{
						OFFSET	-0.604053	0.000000	21.044330
					}
				}
			}
		}
	}
	JOINT RightUpLeg
	{
		OFFSET	-12.830505	-7.049846	-1.643436
		CHANNELS 3 Zrotation Xrotation Yrotation
		JOINT RightLeg
		{
			OFFSET	-0.620834	-39.957500	-1.919341
			CHANNELS 3 Zrotation Xrotation Yrotation
			JOINT RightFoot
			{
				OFFSET	0.413890	-44.704761	-3.870325
				CHANNELS 3 Zrotation Xrotation Yrotation
				JOINT RightFootHeel
				{
					OFFSET	-0.164738	-8.918193	-6.555130
					CHANNELS 3 Zrotation Xrotation Yrotation
					End Site
					{
						OFFSET	0.604053	0.000000	21.044330
					}
				}
			}
		}
	}
	JOINT Spine
	{
		OFFSET	0.000000	12.498170	1.820647
		CHANNELS 3 Zrotation Xrotation Yrotation
		JOINT Spine1
		{
			OFFSET	0.000000	7.620000	0.000000
			CHANNELS 3 Zrotation Xrotation Yrotation
			JOINT LeftShoulder
			{
				OFFSET	9.167800	29.136339	-5.551221
				CHANNELS 3 Zrotation Xrotation Yrotation
				JOINT LeftArm
				{
					OFFSET	12.133453	-3.880866	1.461963
					CHANNELS 3 Zrotation Xrotation Yrotation
					JOINT LeftForeArm
					{
						OFFSET	2.507115	-31.664908	-1.069404
						CHANNELS 3 Zrotation Xrotation Yrotation
						JOINT LeftHand
						{
							OFFSET	4.116172	-24.512624	5.009439
							CHANNELS 3 Zrotation Xrotation Yrotation
							End Site
							{
								OFFSET	-0.213136	-10.931856	2.182134
							}
						}
					}
				}
			}
			JOINT RightShoulder
			{
				OFFSET	-9.167800	29.136339	-5.551221
				CHANNELS 3 Zrotation Xrotation Yrotation
				JOINT RightArm
				{
					OFFSET	-12.133453	-3.880866	1.461963
					CHANNELS 3 Zrotation Xrotation Yrotation
					JOINT RightForeArm
					{
						OFFSET	-2.507115	-31.664908	-1.069404
						CHANNELS 3 Zrotation Xrotation Yrotation
						JOINT RightHand
						{
							OFFSET	-4.116172	-24.512624	5.009439
							CHANNELS 3 Zrotation Xrotation Yrotation
							End Site
							{
								OFFSET	0.213136	-10.931856	2.182134
							}
						}
					}
				}
			}
			JOINT Neck
			{
				OFFSET	0.000000	32.926272	-3.635654
				CHANNELS 3 Zrotation Xrotation Yrotation
				JOINT Head
				{
					OFFSET	0.000000	12.481178	4.646143
					CHANNELS 3 Zrotation Xrotation Yrotation
					End Site
					{
						OFFSET	0.000000	17.715204	-2.222063
					}
				}
			}
		}
	}
}
MOTION
Frames:     11
Frame Time: 0.016667
-3.310420	100.382573	12.061107	1.809213	11.993889	-9.704506	-0.852078	-8.476261	2.438653	2.452127	10.968989	1.316191	-8.153705	-15.625526	3.243198	0.	0.	0.	-10.562762	-31.636784	-4.849846	-2.303550	17.729097	4.957119	4.345040	1.932805	1.553194	0.	0.	0.	0.000000	0.000000	0.000001	3.046964	7.296095	-11.288259	14.606635	-4.181077	1.286990	-0.317003	-14.611541	-10.624250	103.676079	-122.026970	29.553089	-9.460147	2.302497	20.840412	-12.965832	0.174500	4.976696	-51.961933	-51.838089	-47.215332	6.515189	-47.443531	17.632742	-29.421955	26.352074	23.020990	0.043620	4.776618	-7.022593	5.695524	3.583047	-6.788832	
-3.126351	100.408036	12.082952	1.645864	12.202616	-8.397186	-0.897418	-8.992824	2.361044	2.698514	11.165782	0.413048	-8.194813	-15.477190	2.904014	0.	0.	0.	-11.167892	-31.319874	-5.145639	-1.839910	17.594793	3.752747	4.285295	1.843747	1.470719	0.	0.	0.	-0.000000	-0.000000	0.000000	3.712729	7.661219	-11.907668	14.530229	-4.356515	1.308436	-0.411035	-14.507072	-10.909637	102.954300	-121.890968	28.943743	-8.973633	2.513709	21.251356	-12.867733	0.508276	4.510412	-53.319897	-49.803127	-52.598167	2.838092	-46.332848	14.338225	-32.298893	26.079575	24.622965	0.052676	4.787296	-7.127122	5.922495	3.103290	-5.863122	
-3.118472	100.373891	12.322155	1.569122	12.387629	-7.413980	-0.952501	-9.150141	1.379236	2.698514	11.165781	0.413050	-8.194815	-15.477188	2.904015	0.	0.	0.	-11.665446	-31.298014	-6.294977	-1.839912	17.594791	3.752748	4.285293	1.843746	1.470721	0.	0.	0.	0.000000	-0.000000	-0.000000	4.136961	7.979680	-12.719001	14.459608	-4.967382	1.283741	-0.411036	-14.507071	-10.909632	102.954300	-121.890968	28.943747	-8.973631	2.513705	21.251354	-12.573980	0.727651	4.607486	-55.094658	-48.246040	-58.385727	0.207357	-44.650581	12.500110	-34.097916	26.078556	26.642653	-0.078001	4.937516	-6.914965	6.167485	2.583116	-5.301678	
-3.023009	100.426349	12.052614	1.569122	12.387629	-7.413980	-0.928025	-9.434740	2.423205	2.862108	11.281399	-0.306385	-8.254783	-15.309835	2.564652	0.	0.	0.	-11.669324	-31.069410	-5.433049	-1.446611	17.398043	2.889879	4.178019	1.815717	1.396222	0.	0.	0.	0.000000	-0.000000	-0.000000	4.335188	8.416903	-12.802673	14.806657	-4.415998	2.273666	-0.053165	-14.112705	-10.959433	101.969353	-122.226593	28.191051	-8.409296	2.960513	20.533455	-12.229202	0.747569	4.908664	-56.214386	-48.209366	-59.246059	-5.213250	-42.440353	7.371175	-30.450268	22.923712	26.261679	0.219955	4.938612	-6.532346	5.579124	2.362255	-5.363641	
-2.883896	100.433296	12.002058	1.689352	12.649092	-6.743919	-1.112971	-9.786684	3.105294	3.052855	11.047889	-1.039361	-8.358526	-14.961617	1.912753	0.	0.	0.	-12.258813	-30.851316	-5.743456	-1.120516	16.990637	2.106143	4.123479	1.909902	1.540519	0.	0.	0.	-0.000000	-0.000001	0.000002	4.540809	8.353281	-13.478158	15.005540	-4.486909	2.595881	0.112313	-13.566828	-10.733200	101.539719	-122.633492	27.965025	-8.529609	3.026561	19.898088	-11.987760	0.747291	4.986640	-58.100166	-45.715981	-64.627373	-1.155410	-41.232269	10.690498	-32.001202	26.541613	28.163904	0.877088	4.882432	-6.576885	4.479730	2.114291	-5.169983	
-2.872742	100.421534	12.012726	1.792927	12.702577	-6.770084	-1.228897	-9.778784	3.172253	3.076582	10.914222	-1.013236	-8.374688	-14.892864	1.828446	0.	0.	0.	-12.397411	-30.889999	-5.789833	-1.062633	16.924538	1.997842	4.099503	1.959215	1.657082	0.	0.	0.	0.000000	-0.000000	0.000001	4.687463	8.639986	-13.331393	15.000492	-4.816542	2.643030	0.127188	-13.281072	-10.654434	101.459999	-122.809219	27.966791	-8.707087	2.979305	19.632685	-12.051244	0.508849	4.705576	-58.179619	-44.728958	-63.267887	-1.383782	-40.013447	9.370811	-30.474310	26.527283	28.188494	1.033776	4.794198	-7.046520	4.096655	1.681839	-4.765091	
-2.935875	100.443344	11.959215	2.169788	12.709980	-7.379941	-1.509661	-9.654169	3.056904	2.958049	10.731333	-0.452893	-8.356468	-14.881405	1.941114	0.	0.	0.	-12.611580	-31.201677	-5.719817	-1.022222	16.972931	2.029730	4.048532	2.078713	2.080298	0.	0.	0.	-0.000000	0.000000	0.000002	4.507400	9.055398	-12.625442	15.223377	-5.025999	2.833979	0.084990	-12.696722	-10.683905	101.855949	-123.155838	28.685730	-9.435684	2.624155	19.152298	-12.218303	0.546332	4.269233	-58.008736	-44.432690	-61.465508	-1.761521	-39.080395	8.716188	-29.385876	26.492350	27.638758	0.596564	4.739460	-7.505902	4.309891	1.365347	-4.553181	
-3.014208	100.433432	11.898159	2.403774	12.596603	-8.063994	-1.662357	-9.492604	2.724972	2.793309	10.697921	0.214615	-8.280125	-14.933107	2.271751	0.	0.	0.	-12.555099	-31.471033	-5.707870	-1.145938	17.115547	2.383193	4.019785	2.155631	2.449744	0.	0.	0.	0.000001	-0.000002	0.000001	4.371512	9.465392	-11.687602	15.310648	-5.233385	2.767788	0.149360	-12.606050	-10.757379	102.316505	-123.437172	29.546368	-9.818264	2.350165	18.996443	-12.309720	0.521629	4.023481	-57.933575	-44.308247	-60.532040	-1.756647	-38.150768	8.810954	-28.425003	26.309753	26.444546	0.134138	4.725596	-7.831006	4.626673	1.727470	-5.122895	
-3.082925	100.420022	11.847243	2.559212	12.347610	-8.803181	-1.830224	-9.194656	2.303203	2.697191	10.714210	0.968624	-8.207299	-15.029880	2.665159	0.	0.	0.	-12.424817	-31.578983	-5.873502	-1.313323	17.202534	2.832147	3.995141	2.256615	3.014667	0.	0.	0.	0.000001	-0.000000	-0.000001	4.327988	9.983392	-10.637878	15.325283	-5.430773	2.636632	0.281705	-12.637946	-10.786213	102.638733	-123.745407	30.277126	-10.060393	2.156787	18.833479	-12.511899	0.327406	3.574048	-57.933575	-44.308247	-60.532040	-1.034353	-37.612362	9.083713	-29.040920	25.839073	26.374044	0.134195	4.498022	-8.166515	4.204638	1.916351	-5.890730	
-3.118080	100.403482	11.833455	2.668649	12.063162	-9.481278	-2.013434	-8.906003	1.914305	2.678034	10.830114	1.514700	-8.127281	-15.195061	3.165760	0.	0.	0.	-12.396646	-31.574701	-6.204062	-1.372199	17.251812	3.202870	3.947641	2.341618	3.736700	0.	0.	0.	0.000000	0.000000	0.000002	4.455815	10.520611	-9.597888	15.246664	-5.698292	2.521410	0.274702	-12.625268	-10.915934	102.876717	-123.943535	30.712017	-10.205498	2.050558	18.657715	-12.321821	0.003708	3.587245	-58.449360	-44.569134	-60.878380	-0.942471	-37.409912	9.606427	-28.223856	25.772421	25.819838	0.222343	4.201300	-8.767213	3.441911	1.476277	-6.057081	
-3.118080	100.403482	11.833455	2.668649	12.063162	-9.481278	-2.013434	-8.906003	1.914305	2.678034	10.830114	1.514700	-8.127281	-15.195061	3.165760	0.	0.	0.	-12.396646	-31.574701	-6.204062	-1.372199	17.251812	3.202870	3.947641	2.341618	3.736700	0.	0.	0.	0.000000	0.000000	0.000002	4.871450	10.676412	-9.121853	14.819849	-6.054232	2.042425	0.274698	-12.625268	-10.915935	102.876724	-123.943550	30.712008	-10.205503	2.050566	18.657717	-12.410842	-0.260265	3.293727	-58.645645	-44.682106	-60.504269	-0.808879	-37.885490	9.935216	-28.078745	25.640181	25.795002	0.090876	3.993111	-9.373068	3.239347	1.432730	-6.016680	
